<svg width="131" height="131" viewBox="0 0 131 131" fill="none" xmlns="http://www.w3.org/2000/svg">
<path fill-rule="evenodd" clip-rule="evenodd" d="M55.0048 0H75.6316C79.4289 0 82.5072 3.07831 82.5072 6.8756V123.761C82.5072 127.558 79.4289 130.636 75.6316 130.636H55.0048C51.2075 130.636 48.1292 127.558 48.1292 123.761V6.8756C48.1292 3.07831 51.2075 0 55.0048 0ZM6.8756 34.378H27.5024C31.2997 34.378 34.378 37.4563 34.378 41.2536V123.761C34.378 127.558 31.2997 130.636 27.5024 130.636H6.8756C3.07831 130.636 0 127.558 0 123.761V41.2536C0 37.4563 3.07831 34.378 6.8756 34.378ZM103.134 72.1938H123.761C127.558 72.1938 130.636 75.2721 130.636 79.0694V123.761C130.636 127.558 127.558 130.636 123.761 130.636H103.134C99.3367 130.636 96.2584 127.558 96.2584 123.761V79.0694C96.2584 75.2721 99.3367 72.1938 103.134 72.1938Z" fill="black"/>
</svg>
