<svg width="126" height="110" viewBox="0 0 126 110" fill="none" xmlns="http://www.w3.org/2000/svg">
<path d="M117.358 23.4716H117.113L117.358 77.7496V78.2386C117.358 80.3576 116.584 82.1913 115.035 83.7398C113.487 85.2883 111.653 86.0625 109.534 86.0625H15.6477C13.4473 86.0625 11.5932 85.2883 10.0854 83.7398C8.57773 82.1913 7.82386 80.3576 7.82386 78.2386V77.7496L8.06836 23.4716H7.82386C5.6234 23.4716 3.76931 22.7177 2.26159 21.21C0.753862 19.7023 0 17.8482 0 15.6477C0 13.4473 0.753862 11.5932 2.26159 10.0854C3.76931 8.57773 5.60303 7.82386 7.76274 7.82386C9.92245 7.82386 11.7765 8.57773 13.325 10.0854C14.8735 11.5932 15.6477 13.4473 15.6477 15.6477C15.6477 18.3372 14.5475 20.4561 12.347 22.0046L39.1193 59.9015L59.4125 14.9142C58.027 14.3438 56.9064 13.4065 56.0507 12.1025C55.1949 10.7986 54.767 9.37234 54.767 7.82386C54.767 5.6234 55.5209 3.76931 57.0286 2.26159C58.5364 0.753862 60.3701 0 62.5298 0C64.6895 0 66.5436 0.753862 68.0921 2.26159C69.6405 3.76931 70.4148 5.6234 70.4148 7.82386C70.4148 9.37234 69.9869 10.7986 69.1312 12.1025C68.2754 13.4065 67.1548 14.3438 65.7694 14.9142L86.0625 59.9015L112.835 22.0046C110.634 20.4561 109.534 18.3372 109.534 15.6477C109.534 13.4473 110.288 11.5932 111.796 10.0854C113.303 8.57773 115.137 7.82386 117.297 7.82386C119.457 7.82386 121.311 8.57773 122.859 10.0854C124.408 11.5932 125.182 13.4473 125.182 15.6477C125.182 17.8482 124.408 19.7023 122.859 21.21C121.311 22.7177 119.477 23.4716 117.358 23.4716ZM7.82386 93.8864H117.358C119.477 93.8864 121.311 94.6402 122.859 96.148C124.408 97.6557 125.182 99.4894 125.182 101.649C125.182 103.809 124.408 105.663 122.859 107.211C121.311 108.76 119.477 109.534 117.358 109.534H7.82386C5.7049 109.534 3.87118 108.76 2.32271 107.211C0.774237 105.663 0 103.809 0 101.649C0 99.4894 0.753862 97.6557 2.26159 96.148C3.76931 94.6402 5.6234 93.8864 7.82386 93.8864Z" fill="black"/>
</svg>
